<?xml version="1.0" standalone="no"?>
<!DOCTYPE svg PUBLIC "-//W3C//DTD SVG 20010904//EN"
 "http://www.w3.org/TR/2001/REC-SVG-20010904/DTD/svg10.dtd">
<svg version="1.0" xmlns="http://www.w3.org/2000/svg"
 width="1000.000000pt" height="1000.000000pt" viewBox="0 0 1000.000000 1000.000000"
 preserveAspectRatio="xMidYMid meet">
<metadata>
Created by potrace 1.11, written by Peter Selinger 2001-2013
</metadata>
<g transform="translate(0.000000,1000.000000) scale(0.100000,-0.100000)"
fill="#000000" stroke="none">
<path d="M4700 9939 c-530 -34 -1094 -166 -1592 -373 -1712 -713 -2875 -2318
-3029 -4181 -14 -178 -14 -602 1 -765 77 -863 342 -1639 796 -2332 770 -1177
2036 -1983 3429 -2182 413 -59 899 -63 1325 -10 549 68 1132 249 1635 508 950
488 1699 1251 2170 2211 435 884 596 1842 474 2805 -123 975 -538 1901 -1180
2635 -1008 1153 -2506 1779 -4029 1684z m-3414 -3246 c56 -124 144 -282 249
-448 83 -130 656 -943 665 -944 3 0 20 23 39 52 19 28 128 184 243 346 333
465 530 766 657 1004 l53 97 61 -43 c34 -24 151 -105 260 -181 108 -75 197
-140 197 -143 0 -3 -29 -37 -63 -77 -35 -39 -100 -117 -144 -173 l-81 -101 -8
-519 c-13 -731 -11 -1517 4 -1698 13 -163 29 -321 38 -372 l5 -33 -332 0 -331
0 6 53 c4 28 11 97 17 152 13 129 25 1615 13 1614 -5 0 -153 -211 -329 -469
-176 -259 -322 -470 -325 -470 -3 0 -144 212 -315 470 -170 258 -313 470 -317
470 -11 0 -2 -1454 10 -1567 6 -55 14 -135 18 -177 l7 -76 -322 0 -322 0 6 53
c3 28 11 97 16 152 7 59 13 569 16 1252 l5 1151 -82 114 c-45 62 -109 144
-143 181 -41 47 -56 72 -49 79 16 16 527 356 530 353 2 -2 24 -48 48 -102z
m6529 17 c115 -13 267 -50 423 -101 l122 -41 0 -289 c0 -159 -2 -289 -5 -289
-2 0 -33 15 -67 34 -91 50 -273 122 -380 151 -113 31 -278 43 -359 26 -154
-32 -220 -160 -155 -296 48 -99 134 -185 369 -367 514 -398 639 -522 750 -744
70 -139 82 -198 81 -394 -1 -160 -3 -183 -27 -263 -115 -375 -422 -624 -882
-714 -113 -22 -467 -24 -590 -4 -86 14 -333 73 -377 90 l-28 11 0 310 0 310
70 -35 c365 -184 783 -211 1030 -68 207 121 259 340 127 539 -63 96 -167 191
-510 466 -341 274 -415 344 -505 474 -200 290 -169 702 72 946 101 102 210
167 356 212 144 45 302 56 485 36z"/>
</g>
</svg>
